<?xml version="1.0" encoding="utf-8"?>
<!-- Generator: Adobe Illustrator 15.0.0, SVG Export Plug-In . SVG Version: 6.00 Build 0)  -->
<!DOCTYPE svg PUBLIC "-//W3C//DTD SVG 1.1//EN" "http://www.w3.org/Graphics/SVG/1.1/DTD/svg11.dtd">
<svg version="1.1" id="Layer_1" xmlns="http://www.w3.org/2000/svg" xmlns:xlink="http://www.w3.org/1999/xlink" x="0px" y="0px"
	 width="197.223px" height="65.277px" viewBox="0 0 197.223 65.277" enable-background="new 0 0 197.223 65.277"
	 xml:space="preserve">
<g enable-background="new    ">
	<path fill="#E6D1D8" d="M45.794,49.994H37.95V38.709c0-0.864-0.09-1.469-0.272-1.803c-0.182-0.335-0.509-0.504-0.983-0.504
		c-0.882,0-1.322,0.777-1.322,2.328v11.264h-7.845V38.709c0-0.864-0.094-1.469-0.283-1.803c-0.188-0.335-0.521-0.504-0.998-0.504
		c-0.867,0-1.301,0.777-1.301,2.328v11.264h-7.843V37.116c0-2.35,0.79-4.345,2.371-5.989c1.579-1.642,3.493-2.464,5.746-2.464
		c2.319,0,4.402,0.981,6.25,2.938c2.056-1.958,4.109-2.938,6.165-2.938c2.614,0,4.712,0.951,6.293,2.854
		c1.244,1.482,1.866,3.642,1.866,6.481V49.994L45.794,49.994z"/>
	<path fill="#E6D1D8" d="M51.677,59.161v-6.82c1.062,0.45,1.992,0.676,2.79,0.676c2.543,0,4.194-1.437,4.949-4.302
		c-1.369,0.812-2.712,1.218-4.025,1.218c-1.942,0-3.544-0.725-4.804-2.173c-1.259-1.447-1.887-3.287-1.887-5.526V29.084h7.844v11.24
		c0,1.246,0.517,1.866,1.553,1.866c0.992,0,1.487-0.686,1.487-2.056V29.084h7.847V47.75c0,3.48-0.98,6.293-2.938,8.431
		c-2.336,2.545-5.16,3.818-8.475,3.818C54.563,59.999,53.116,59.717,51.677,59.161z"/>
</g>
<g enable-background="new    ">
	<path fill="#F8DEEB" d="M83.544,22.409v32.563h-13.59V22.409h-10.41V9.289h34.375v13.12H83.544z"/>
</g>
<g enable-background="new    ">
	<path fill="#D29EC8" d="M93.856,25.134v8.383c1.274-0.927,2.545-1.387,3.817-1.387c1.932,0,3.464,0.695,4.594,2.09
		c1.134,1.395,1.7,3.275,1.7,5.649v12.702h-7.52v-10.59c0-0.861-0.09-1.438-0.27-1.73c-0.184-0.292-0.533-0.441-1.056-0.441
		c-0.847,0-1.268,0.623-1.268,1.871v10.891h-7.519V25.134H93.856z"/>
	<path fill="#D29EC8" d="M118.044,45.056v7.777c-0.612,0.109-1.18,0.16-1.689,0.16c-3.013,0-5.527-0.987-7.536-2.972
		c-2.011-1.986-3.014-4.472-3.014-7.46c0-2.904,1.015-5.37,3.043-7.396c2.029-2.023,4.502-3.036,7.41-3.036
		c3.24,0,5.797,0.948,7.667,2.843c1.87,1.896,2.805,4.486,2.805,7.771v9.826h-7.52v-9.285c0-1.058-0.257-1.903-0.772-2.534
		c-0.519-0.627-1.21-0.943-2.084-0.943c-0.788,0-1.471,0.289-2.05,0.865c-0.573,0.577-0.864,1.261-0.864,2.048
		c0,0.831,0.262,1.518,0.788,2.053c0.519,0.535,1.183,0.801,1.985,0.801C116.874,45.576,117.482,45.404,118.044,45.056z"/>
	<path fill="#D29EC8" d="M137.186,32.534v20.038h-7.515V32.534H137.186z M133.451,23.588c1.017,0,1.9,0.359,2.64,1.074
		c0.746,0.718,1.117,1.564,1.117,2.542c0,1.047-0.351,1.904-1.055,2.573c-0.705,0.668-1.606,1.005-2.703,1.005
		c-1.101,0-2.001-0.336-2.706-1.005c-0.702-0.668-1.053-1.526-1.053-2.573c0-0.979,0.37-1.824,1.115-2.542
		C131.55,23.947,132.431,23.588,133.451,23.588z"/>
</g>
<path fill="#F384A7" d="M143.331,52.571c0,0-4.907-58.308,43.716-32.881C167.42,19.244,156.266,4.711,143.331,52.571z"/>
<path fill="#D29EC8" d="M147.049,52.996c0,0-4.907-58.31,43.716-32.883C171.138,19.668,159.985,5.134,147.049,52.996z"/>
</svg>
