<?xml version="1.0" encoding="utf-8"?>
<!-- Generator: Adobe Illustrator 15.0.0, SVG Export Plug-In . SVG Version: 6.00 Build 0)  -->
<!DOCTYPE svg PUBLIC "-//W3C//DTD SVG 1.1//EN" "http://www.w3.org/Graphics/SVG/1.1/DTD/svg11.dtd">
<svg version="1.1" id="Layer_1" xmlns="http://www.w3.org/2000/svg" xmlns:xlink="http://www.w3.org/1999/xlink" x="0px" y="0px"
	 width="110px" height="32.5px" viewBox="35.405 22 110 32.5" enable-background="new 35.405 22 110 32.5" xml:space="preserve">
<g enable-background="new    ">
	<path fill="#F384A7" d="M57.242,46.733h-4.396v-6.324c0-0.484-0.051-0.823-0.153-1.011c-0.102-0.188-0.285-0.282-0.551-0.282
		c-0.495,0-0.741,0.436-0.741,1.305v6.312h-4.396v-6.324c0-0.484-0.053-0.823-0.158-1.011c-0.106-0.188-0.292-0.282-0.559-0.282
		c-0.486,0-0.729,0.436-0.729,1.305v6.312h-4.396v-7.218c0-1.316,0.442-2.435,1.328-3.355c0.885-0.92,1.958-1.381,3.221-1.381
		c1.3,0,2.468,0.55,3.503,1.646c1.152-1.097,2.303-1.646,3.455-1.646c1.465,0,2.641,0.533,3.526,1.599
		c0.698,0.831,1.046,2.041,1.046,3.633L57.242,46.733L57.242,46.733z"/>
	<path fill="#F384A7" d="M60.539,51.871v-3.822c0.595,0.252,1.117,0.378,1.563,0.378c1.425,0,2.351-0.804,2.773-2.41
		c-0.767,0.455-1.52,0.682-2.256,0.682c-1.088,0-1.986-0.405-2.692-1.217s-1.058-1.843-1.058-3.098v-7.369h4.396v6.3
		c0,0.698,0.29,1.046,0.87,1.046c0.556,0,0.834-0.384,0.834-1.151v-6.194h4.397v10.461c0,1.951-0.549,3.527-1.646,4.725
		c-1.309,1.427-2.891,2.141-4.749,2.141C62.156,52.341,61.345,52.183,60.539,51.871z"/>
</g>
<g enable-background="new    ">
	<path fill="#E49BEA" d="M78.399,31.274v18.25h-7.616v-18.25h-5.834v-7.353h19.264v7.353H78.399z"/>
</g>
<g enable-background="new    ">
	<path fill="#E49BEA" d="M84.178,32.801v4.698c0.714-0.519,1.426-0.776,2.14-0.776c1.082,0,1.94,0.39,2.574,1.171
		c0.636,0.781,0.953,1.836,0.953,3.166v7.118h-4.214v-5.935c0-0.482-0.051-0.806-0.151-0.97c-0.103-0.164-0.299-0.248-0.591-0.248
		c-0.474,0-0.71,0.35-0.71,1.049v6.104h-4.213V32.801H84.178z"/>
	<path fill="#E49BEA" d="M97.734,43.966v4.359c-0.344,0.062-0.661,0.09-0.947,0.09c-1.688,0-3.098-0.554-4.224-1.666
		c-1.127-1.113-1.689-2.506-1.689-4.181c0-1.628,0.568-3.01,1.706-4.145s2.523-1.701,4.153-1.701c1.815,0,3.249,0.531,4.297,1.593
		c1.048,1.063,1.571,2.515,1.571,4.355v5.507h-4.213v-5.203c0-0.593-0.145-1.066-0.434-1.42c-0.29-0.352-0.679-0.529-1.168-0.529
		c-0.441,0-0.824,0.162-1.148,0.485c-0.321,0.323-0.484,0.706-0.484,1.147c0,0.466,0.147,0.851,0.441,1.15
		c0.291,0.3,0.663,0.449,1.113,0.449C97.077,44.258,97.418,44.161,97.734,43.966z"/>
	<path fill="#E49BEA" d="M108.461,36.948v11.229h-4.212V36.948H108.461z M106.367,31.935c0.57,0,1.065,0.201,1.48,0.602
		c0.418,0.402,0.626,0.876,0.626,1.425c0,0.587-0.197,1.067-0.591,1.442c-0.396,0.375-0.9,0.563-1.516,0.563
		c-0.616,0-1.121-0.188-1.516-0.563c-0.394-0.375-0.591-0.855-0.591-1.442c0-0.548,0.207-1.022,0.625-1.425
		C105.302,32.136,105.796,31.935,106.367,31.935z"/>
</g>
<path fill="#F384A7" d="M111.905,48.178c0,0-2.75-32.678,24.5-18.428C125.405,29.5,119.155,21.355,111.905,48.178z"/>
<path fill="#E49BEA" d="M113.989,48.416c0,0-2.75-32.679,24.5-18.429C127.489,29.737,121.239,21.593,113.989,48.416z"/>
</svg>
