<?xml version="1.0" encoding="utf-8"?>
<!-- Generator: Adobe Illustrator 15.0.0, SVG Export Plug-In . SVG Version: 6.00 Build 0)  -->
<!DOCTYPE svg PUBLIC "-//W3C//DTD SVG 1.1//EN" "http://www.w3.org/Graphics/SVG/1.1/DTD/svg11.dtd">
<svg version="1.1" id="Layer_1" xmlns="http://www.w3.org/2000/svg" xmlns:xlink="http://www.w3.org/1999/xlink" x="0px" y="0px"
	 width="197.222px" height="65.277px" viewBox="0 0 197.222 65.277" enable-background="new 0 0 197.222 65.277"
	 xml:space="preserve">
<g enable-background="new    ">
	<path fill="#E6D1D8" stroke="#7A143E" stroke-width="3" stroke-miterlimit="10" d="M45.794,49.994H37.95V38.709
		c0-0.864-0.09-1.469-0.273-1.803c-0.181-0.335-0.508-0.504-0.983-0.504c-0.882,0-1.322,0.777-1.322,2.328v11.264h-7.845V38.709
		c0-0.864-0.094-1.469-0.283-1.803c-0.189-0.335-0.521-0.504-0.998-0.504c-0.867,0-1.301,0.777-1.301,2.328v11.264h-7.843V37.116
		c0-2.35,0.79-4.345,2.371-5.989c1.579-1.642,3.494-2.464,5.746-2.464c2.32,0,4.403,0.981,6.25,2.938
		c2.056-1.958,4.11-2.938,6.166-2.938c2.614,0,4.711,0.951,6.292,2.854c1.245,1.483,1.867,3.642,1.867,6.482L45.794,49.994
		L45.794,49.994z"/>
	<path fill="#E6D1D8" stroke="#7A143E" stroke-width="3" stroke-miterlimit="10" d="M51.677,59.161v-6.82
		c1.062,0.45,1.992,0.675,2.79,0.675c2.543,0,4.194-1.436,4.949-4.301c-1.369,0.812-2.712,1.217-4.026,1.217
		c-1.942,0-3.544-0.724-4.803-2.172c-1.259-1.448-1.887-3.288-1.887-5.527V29.084h7.844v11.24c0,1.246,0.516,1.866,1.552,1.866
		c0.993,0,1.488-0.685,1.488-2.055V29.084h7.846V47.75c0,3.48-0.98,6.293-2.937,8.43c-2.336,2.545-5.16,3.819-8.475,3.819
		C54.563,59.999,53.116,59.717,51.677,59.161z"/>
</g>
<g enable-background="new    ">
	<path fill="#F8DEEB" stroke="#7A143E" stroke-width="3" stroke-miterlimit="10" d="M83.544,22.409v32.563h-13.59V22.409h-10.41
		V9.289h34.375v13.12H83.544z"/>
</g>
<g enable-background="new    ">
	<path fill="#D29EC8" stroke="#7A143E" stroke-width="3" stroke-miterlimit="10" d="M93.856,25.134v8.382
		c1.275-0.926,2.545-1.386,3.818-1.386c1.931,0,3.463,0.695,4.593,2.09c1.134,1.394,1.701,3.275,1.701,5.649v12.702h-7.52v-10.59
		c0-0.861-0.09-1.438-0.27-1.73c-0.183-0.292-0.533-0.442-1.055-0.442c-0.847,0-1.268,0.623-1.268,1.871v10.891h-7.518V25.134
		H93.856z"/>
	<path fill="#D29EC8" stroke="#7A143E" stroke-width="3" stroke-miterlimit="10" d="M118.044,45.056v7.778
		c-0.613,0.109-1.18,0.16-1.69,0.16c-3.012,0-5.527-0.987-7.536-2.972c-2.011-1.986-3.014-4.471-3.014-7.46
		c0-2.904,1.015-5.37,3.043-7.395c2.03-2.024,4.502-3.036,7.411-3.036c3.24,0,5.796,0.948,7.667,2.842
		c1.87,1.897,2.804,4.487,2.804,7.772v9.826h-7.519v-9.285c0-1.058-0.257-1.903-0.773-2.534c-0.518-0.627-1.21-0.944-2.084-0.944
		c-0.788,0-1.47,0.289-2.05,0.866c-0.573,0.577-0.864,1.26-0.864,2.047c0,0.832,0.262,1.518,0.788,2.053
		c0.519,0.535,1.183,0.801,1.986,0.801C116.874,45.576,117.482,45.404,118.044,45.056z"/>
	<path fill="#D29EC8" stroke="#7A143E" stroke-width="3" stroke-miterlimit="10" d="M137.186,32.534v20.038h-7.514V32.534H137.186z
		 M133.451,23.588c1.017,0,1.9,0.359,2.64,1.074c0.746,0.718,1.117,1.564,1.117,2.542c0,1.047-0.351,1.904-1.055,2.573
		c-0.705,0.668-1.606,1.005-2.703,1.005c-1.101,0-2.001-0.336-2.706-1.005c-0.702-0.668-1.053-1.526-1.053-2.573
		c0-0.979,0.37-1.824,1.115-2.542C131.55,23.947,132.431,23.588,133.451,23.588z"/>
</g>
<path fill="#F384A7" d="M143.331,52.571c0,0-4.907-58.308,43.716-32.881C167.42,19.244,156.266,4.711,143.331,52.571z"/>
<path fill="#D29EC8" d="M147.049,52.996c0,0-4.908-58.31,43.715-32.883C171.138,19.668,159.985,5.134,147.049,52.996z"/>
</svg>
